<svg width="48" height="48" viewBox="0 0 48 48" fill="none" xmlns="http://www.w3.org/2000/svg">
<path d="M10.7998 8.63379H37.1992C37.702 8.63379 38.1877 8.8081 38.5732 9.12402L38.7314 9.26855C39.1378 9.67488 39.3662 10.2261 39.3662 10.8008V37.2002C39.3662 37.7748 39.1378 38.3261 38.7314 38.7324C38.3251 39.1387 37.7738 39.3672 37.1992 39.3672C36.6248 39.3671 36.0742 39.1386 35.668 38.7324C35.2616 38.3261 35.0332 37.7748 35.0332 37.2002V16.0322L34.1797 16.8857L12.333 38.7305L12.3271 38.7373C12.1273 38.9442 11.8874 39.1091 11.623 39.2227C11.3588 39.3361 11.0747 39.3959 10.7871 39.3984L10.5723 39.3896C10.4293 39.3767 10.288 39.3495 10.1504 39.3086L9.94824 39.2373C9.74844 39.1556 9.56191 39.0445 9.39551 38.9082L9.23633 38.7637C9.08377 38.6111 8.95522 38.437 8.85449 38.2471L8.7627 38.0527C8.68094 37.8529 8.62979 37.642 8.61035 37.4277L8.60156 37.2129C8.60345 36.9971 8.63729 36.7831 8.70215 36.5781L8.77734 36.377C8.86258 36.1785 8.977 35.9941 9.11621 35.8301L9.2627 35.6738L9.26953 35.667L31.1133 13.8203L31.9668 12.9668H10.7998C10.2971 12.9668 9.81228 12.7924 9.42676 12.4766L9.26758 12.333C8.86133 11.9268 8.6329 11.3753 8.63281 10.8008C8.63281 10.298 8.80816 9.81327 9.12402 9.42773L9.26758 9.26855C9.62321 8.91292 10.0898 8.6937 10.5859 8.64453L10.7998 8.63379Z" fill="#144443" stroke="#144443"/>
</svg>
