<svg width="220" height="27" viewBox="0 0 220 27" fill="none" xmlns="http://www.w3.org/2000/svg">
<path d="M27.0438 26.7402C27.0438 11.9723 14.9359 0 0 0V26.7402H27.0438Z" fill="#55697A"/>
<path d="M27.0438 26.7402C27.0438 11.9723 39.1516 0 54.0875 0V26.7402H27.0438Z" fill="#E47762"/>
<path d="M64.2016 4.88581H65.6514C66.8648 4.88581 67.4712 4.39009 67.4712 3.39836C67.4712 2.37488 66.8613 1.86285 65.6417 1.86285H64.2016V4.88581ZM62.0665 10.1222V0.136719H66.051C67.1983 0.136719 68.0885 0.432618 68.7213 1.02385C69.3541 1.61584 69.6705 2.407 69.6705 3.39836C69.6705 4.08131 69.517 4.66487 69.2091 5.14922C68.9018 5.63358 68.4606 5.99751 67.8856 6.2412L70.0305 10.1222H67.6733L65.76 6.58248H64.2016V10.1222H62.0665Z" fill="#454343"/>
<path d="M71.0406 10.1225V0.136719H77.8459V1.87782H73.1758V4.25707H77.4956V5.99779H73.1758V8.38177H77.8655V10.1225H71.0406Z" fill="#454343"/>
<path d="M84.8864 3.00856C84.8473 2.61517 84.6769 2.30931 84.376 2.09167C84.0755 1.87413 83.6701 1.76479 83.1607 1.76479C82.6381 1.76479 82.2368 1.87082 81.9573 2.08201C81.6777 2.29293 81.5381 2.55964 81.5381 2.88188C81.5313 3.23918 81.6868 3.50998 82.0042 3.6935C82.3213 3.87732 82.6986 4.01934 83.136 4.12035L84.0434 4.33458C84.6282 4.46457 85.1484 4.65312 85.6041 4.90042C86.0591 5.14743 86.4174 5.46502 86.6787 5.8534C86.9404 6.24178 87.0709 6.71381 87.0709 7.26999C87.0675 8.18346 86.7217 8.91047 86.0328 9.45196C85.3442 9.99279 84.3835 10.2636 83.1509 10.2636C81.9241 10.2636 80.9465 9.98711 80.2166 9.43491C79.4868 8.88205 79.1085 8.06645 79.0825 6.98688H81.1483C81.1848 7.48753 81.3846 7.86397 81.7476 8.11562C82.1111 8.36765 82.5702 8.49367 83.1259 8.49367C83.6684 8.49367 84.1015 8.37969 84.4253 8.15238C84.7492 7.9248 84.9128 7.62899 84.9159 7.26496C84.9128 6.927 84.763 6.66701 84.4676 6.4848C84.1715 6.30298 83.7489 6.14684 83.1999 6.01684L82.1003 5.74377C81.2491 5.54253 80.5766 5.22199 80.0834 4.7835C79.5902 4.34424 79.3455 3.75764 79.3488 3.02258C79.3455 2.41827 79.5088 1.8892 79.8394 1.43592C80.1697 0.982639 80.624 0.629705 81.2028 0.377672C81.7812 0.126019 82.4386 0 83.1752 0C83.925 0 84.5802 0.126683 85.1403 0.380041C85.7011 0.633684 86.1372 0.986713 86.4495 1.43829C86.7615 1.88986 86.9228 2.41326 86.933 3.00856H84.8864Z" fill="#454343"/>
<path d="M90.4973 5.1929H91.9471C92.5587 5.1929 93.015 5.03817 93.3152 4.7273C93.6164 4.4171 93.7668 4.01498 93.7668 3.52096C93.7668 3.02296 93.6164 2.62284 93.3152 2.31869C93.015 2.01483 92.5553 1.86314 91.9373 1.86314H90.4973V5.1929ZM88.3621 10.1225V0.136719H92.3467C93.1127 0.136719 93.7652 0.280453 94.3043 0.568206C94.8432 0.855958 95.2552 1.25447 95.5395 1.76251C95.8239 2.27188 95.9662 2.85753 95.9662 3.52096C95.9662 4.18344 95.8215 4.76813 95.5321 5.27352C95.2428 5.77892 94.8246 6.17393 94.2773 6.45808C93.7296 6.7429 93.068 6.88492 92.2923 6.88492H90.4973V10.1225H88.3621Z" fill="#454343"/>
<path d="M103.455 0.136719H105.591V6.62152C105.591 7.34986 105.416 7.98667 105.068 8.53308C104.719 9.07931 104.231 9.50378 103.603 9.80831C102.976 10.1118 102.242 10.2639 101.404 10.2639C100.566 10.2639 99.8327 10.1118 99.2049 9.80831C98.5765 9.50378 98.0887 9.07931 97.7401 8.53308C97.3916 7.98667 97.2172 7.34986 97.2172 6.62152V0.136719H99.3523V6.44103C99.3523 7.0099 99.5399 7.47957 99.9148 7.85022C100.289 8.22098 100.786 8.40612 101.404 8.40612C102.025 8.40612 102.523 8.22098 102.896 7.85022C103.269 7.47957 103.455 7.0099 103.455 6.44103V0.136719Z" fill="#454343"/>
<path d="M109.342 8.39645H111.083C111.681 8.39645 112.117 8.28285 112.387 8.05517C112.659 7.82787 112.794 7.52705 112.794 7.15336C112.794 6.74025 112.645 6.40237 112.348 6.13926C112.05 5.87557 111.645 5.74415 111.132 5.74415H109.342V8.39645ZM109.342 4.31525H110.925C111.363 4.31525 111.726 4.20259 112.015 3.97661C112.304 3.75073 112.449 3.4408 112.449 3.04779C112.449 2.68679 112.32 2.3963 112.062 2.17506C111.804 1.95411 111.438 1.84344 110.965 1.84344H109.342V4.31525ZM107.207 10.1226V0.136719H111.251C112.366 0.136719 113.203 0.376433 113.764 0.856052C114.324 1.33539 114.604 1.94908 114.604 2.69646C114.604 3.28475 114.432 3.7604 114.086 4.12309C113.741 4.48541 113.305 4.72503 112.779 4.84205V4.93926C113.164 4.95565 113.525 5.06301 113.862 5.26151C114.199 5.45944 114.472 5.7362 114.683 6.09018C114.893 6.44445 114.999 6.86863 114.999 7.36266C114.999 7.89278 114.866 8.36576 114.601 8.7819C114.337 9.19804 113.947 9.5253 113.43 9.76425C112.914 10.0029 112.278 10.1226 111.522 10.1226H107.207Z" fill="#454343"/>
<path d="M116.245 10.1225V0.136719H118.38V8.38177H122.71V10.1225H116.245Z" fill="#454343"/>
<path d="M126.121 10.1226H123.986V0.136719H126.121V10.1226Z" fill="#454343"/>
<path d="M127.743 10.1225V0.136719H129.878V4.53951H130.011L133.646 0.136719H136.205L132.457 4.60802L136.249 10.1225H133.695L130.928 6.01722L129.878 7.28505V10.1225H127.743Z" fill="#454343"/>
<path d="M140.213 6.19743H142.777L141.535 2.41866H141.456L140.213 6.19743ZM138.921 10.1225H136.632L140.119 0.136719H142.871L146.352 10.1225H144.064L143.315 7.84559H139.67L138.921 10.1225Z" fill="#454343"/>
<path d="M153.54 6.19743H156.105L154.862 2.41866H154.783L153.54 6.19743ZM152.248 10.1225H149.96L153.447 0.136719H156.198L159.679 10.1225H157.391L156.642 7.84559H152.998L152.248 10.1225Z" fill="#454343"/>
<path d="M162.756 0.136719L164.793 3.54009H164.872L166.918 0.136719H169.329L166.247 5.12979L169.398 10.1225H166.943L164.872 6.71409H164.793L162.721 10.1225H160.276L163.437 5.12979L160.335 0.136719H162.756Z" fill="#454343"/>
<path d="M172.671 8.39645H174.412C175.011 8.39645 175.445 8.28285 175.717 8.05517C175.988 7.82787 176.123 7.52705 176.123 7.15336C176.123 6.74025 175.975 6.40237 175.677 6.13926C175.38 5.87557 174.974 5.74415 174.461 5.74415H172.671V8.39645ZM172.671 4.31525H174.255C174.692 4.31525 175.055 4.20259 175.344 3.97661C175.633 3.75073 175.778 3.4408 175.778 3.04779C175.778 2.68679 175.649 2.3963 175.391 2.17506C175.133 1.95411 174.767 1.84344 174.294 1.84344H172.671V4.31525ZM170.536 10.1226V0.136719H174.58C175.694 0.136719 176.532 0.376433 177.092 0.856052C177.653 1.33539 177.933 1.94908 177.933 2.69646C177.933 3.28475 177.761 3.7604 177.415 4.12309C177.07 4.48541 176.635 4.72503 176.108 4.84205V4.93926C176.493 4.95565 176.854 5.06301 177.191 5.26151C177.528 5.45944 177.802 5.7362 178.012 6.09018C178.223 6.44445 178.327 6.86863 178.327 7.36266C178.327 7.89278 178.196 8.36576 177.931 8.7819C177.666 9.19804 177.275 9.5253 176.759 9.76425C176.243 10.0029 175.607 10.1226 174.851 10.1226H170.536Z" fill="#454343"/>
<path d="M186.69 5.1298C186.69 4.06985 186.457 3.26164 185.99 2.70376C185.523 2.14626 184.902 1.86778 184.126 1.86778C183.35 1.86778 182.728 2.14626 182.262 2.70376C181.795 3.26164 181.562 4.06985 181.562 5.1298C181.562 6.18597 181.795 6.99389 182.262 7.5531C182.728 8.11193 183.35 8.39144 184.126 8.39144C184.902 8.39144 185.523 8.11193 185.99 7.5531C186.457 6.99389 186.69 6.18597 186.69 5.1298ZM188.855 5.1298C188.855 6.21847 188.647 7.14501 188.231 7.90878C187.815 8.67284 187.251 9.25545 186.538 9.6569C185.824 10.0584 185.02 10.2588 184.126 10.2588C183.229 10.2588 182.423 10.0577 181.71 9.65453C180.996 9.25147 180.432 8.66716 180.019 7.9014C179.604 7.13592 179.397 6.21212 179.397 5.1298C179.397 4.04047 179.604 3.11459 180.019 2.35044C180.432 1.58667 180.996 1.00406 181.71 0.602609C182.423 0.200873 183.229 0 184.126 0C185.02 0 185.824 0.200873 186.538 0.602609C187.251 1.00406 187.815 1.58667 188.231 2.35044C188.647 3.11459 188.855 4.04047 188.855 5.1298Z" fill="#454343"/>
<path d="M192.429 4.88581H193.879C195.092 4.88581 195.699 4.39009 195.699 3.39836C195.699 2.37488 195.089 1.86285 193.869 1.86285H192.429V4.88581ZM190.294 10.1222V0.136719H194.278C195.426 0.136719 196.316 0.432618 196.948 1.02385C197.581 1.61584 197.898 2.407 197.898 3.39836C197.898 4.08131 197.744 4.66487 197.437 5.14922C197.129 5.63358 196.688 5.99751 196.113 6.2412L198.258 10.1222H195.901L193.987 6.58248H192.429V10.1222H190.294Z" fill="#454343"/>
<path d="M206.383 5.1298C206.383 4.06985 206.15 3.26164 205.683 2.70376C205.216 2.14626 204.595 1.86778 203.819 1.86778C203.043 1.86778 202.422 2.14626 201.955 2.70376C201.489 3.26164 201.255 4.06985 201.255 5.1298C201.255 6.18597 201.489 6.99389 201.955 7.5531C202.422 8.11193 203.043 8.39144 203.819 8.39144C204.595 8.39144 205.216 8.11193 205.683 7.5531C206.15 6.99389 206.383 6.18597 206.383 5.1298ZM208.548 5.1298C208.548 6.21847 208.34 7.14501 207.924 7.90878C207.508 8.67284 206.944 9.25545 206.231 9.6569C205.517 10.0584 204.713 10.2588 203.819 10.2588C202.922 10.2588 202.116 10.0577 201.403 9.65453C200.689 9.25147 200.125 8.66716 199.712 7.9014C199.297 7.13592 199.091 6.21212 199.091 5.1298C199.091 4.04047 199.297 3.11459 199.712 2.35044C200.125 1.58667 200.689 1.00406 201.403 0.602609C202.116 0.200873 202.922 0 203.819 0C204.713 0 205.517 0.200873 206.231 0.602609C206.944 1.00406 207.508 1.58667 207.924 2.35044C208.34 3.11459 208.548 4.04047 208.548 5.1298Z" fill="#454343"/>
<path d="M209.154 1.87754V0.136719H217.448V1.87754H214.356V10.1222H212.246V1.87754H209.154Z" fill="#454343"/>
<path d="M220 5.95333H216.655V4.30518H220V5.95333Z" fill="#454343"/>
<path d="M62.0666 26.5987V16.6128H64.2017V21.016H64.3349L67.9692 16.6128H70.5286L66.7806 21.0842L70.5732 26.5987H68.0186L65.252 22.4934L64.2017 23.7611V26.5987H62.0666Z" fill="#454343"/>
<path d="M77.7419 16.6128H79.8773V23.0977C79.8773 23.826 79.7029 24.4631 79.3547 25.0093C79.0058 25.5555 78.5176 25.9802 77.8899 26.2845C77.2621 26.5882 76.5289 26.74 75.6905 26.74C74.8523 26.74 74.1193 26.5882 73.4916 26.2845C72.8631 25.9802 72.375 25.5555 72.0268 25.0093C71.6783 24.4631 71.5039 23.826 71.5039 23.0977V16.6128H73.6389V22.9172C73.6389 23.4864 73.8266 23.956 74.2015 24.3264C74.576 24.6971 75.0727 24.8826 75.6905 24.8826C76.312 24.8826 76.8095 24.6971 77.1824 24.3264C77.5556 23.956 77.7419 23.4864 77.7419 22.9172V16.6128Z" fill="#454343"/>
<path d="M81.1091 18.354V16.6128H89.4035V18.354H86.3117V26.5987H84.2009V18.354H81.1091Z" fill="#454343"/>
<path d="M96.8733 16.6128H99.0087V23.0977C99.0087 23.826 98.8343 24.4631 98.4861 25.0093C98.1373 25.5555 97.6491 25.9802 97.021 26.2845C96.3933 26.5882 95.6604 26.74 94.822 26.74C93.9837 26.74 93.2508 26.5882 92.6227 26.2845C91.9946 25.9802 91.5064 25.5555 91.1579 25.0093C90.8098 24.4631 90.6353 23.826 90.6353 23.0977V16.6128H92.7704V22.9172C92.7704 23.4864 92.9581 23.956 93.3326 24.3264C93.7075 24.6971 94.2041 24.8826 94.822 24.8826C95.4434 24.8826 95.9406 24.6971 96.3138 24.3264C96.6871 23.956 96.8733 23.4864 96.8733 22.9172V16.6128Z" fill="#454343"/>
<path d="M102.76 24.8729H104.501C105.099 24.8729 105.534 24.7589 105.806 24.5316C106.076 24.3043 106.212 24.0031 106.212 23.6294C106.212 23.2166 106.063 22.8787 105.766 22.6153C105.468 22.3519 105.063 22.2202 104.55 22.2202H102.76V24.8729ZM102.76 20.7916H104.343C104.78 20.7916 105.144 20.6787 105.433 20.4527C105.722 20.2271 105.867 19.9173 105.867 19.5238C105.867 19.1632 105.738 18.8724 105.48 18.651C105.222 18.4302 104.856 18.3198 104.383 18.3198H102.76V20.7916ZM100.625 26.5986V16.6128H104.669C105.783 16.6128 106.621 16.8528 107.181 17.3321C107.742 17.8117 108.022 18.4252 108.022 19.1728C108.022 19.7611 107.849 20.2367 107.504 20.5991C107.159 20.9614 106.723 21.2014 106.197 21.3181V21.4157C106.582 21.4321 106.943 21.539 107.28 21.7376C107.617 21.9358 107.89 22.2122 108.101 22.5665C108.311 22.9205 108.416 23.345 108.416 23.839C108.416 24.3688 108.284 24.8417 108.019 25.258C107.755 25.6741 107.364 26.0017 106.848 26.2403C106.332 26.4793 105.696 26.5986 104.94 26.5986H100.625Z" fill="#454343"/>
<path d="M111.665 16.6128L113.702 20.0162H113.781L115.827 16.6128H118.238L115.156 21.6059L118.307 26.5987H115.852L113.781 23.1906H113.702L111.631 26.5987H109.185L112.346 21.6059L109.244 16.6128H111.665Z" fill="#454343"/>
<path d="M126.097 21.6064C126.097 20.5464 125.865 19.7382 125.398 19.1803C124.931 18.6228 124.309 18.3443 123.533 18.3443C122.758 18.3443 122.136 18.6228 121.669 19.1803C121.203 19.7382 120.97 20.5464 120.97 21.6064C120.97 22.6622 121.203 23.4705 121.669 24.0297C122.136 24.5886 122.758 24.8683 123.533 24.8683C124.309 24.8683 124.931 24.5886 125.398 24.0297C125.865 23.4705 126.097 22.6622 126.097 21.6064ZM128.262 21.6064C128.262 22.695 128.055 23.6216 127.639 24.3853C127.223 25.1494 126.658 25.732 125.945 26.1335C125.231 26.5349 124.428 26.7355 123.533 26.7355C122.637 26.7355 121.831 26.5343 121.117 26.1308C120.404 25.7277 119.84 25.1437 119.426 24.3783C119.012 23.6126 118.805 22.6883 118.805 21.6064C118.805 20.517 119.012 19.5912 119.426 18.827C119.84 18.0629 120.404 17.4806 121.117 17.0793C121.831 16.6778 122.637 16.4766 123.533 16.4766C124.428 16.4766 125.231 16.6778 125.945 17.0793C126.658 17.4806 127.223 18.0629 127.639 18.827C128.055 19.5912 128.262 20.517 128.262 21.6064Z" fill="#454343"/>
<path d="M138.149 16.6128V26.5987H136.304L131.911 20.3137H131.837V26.5987H129.702V16.6128H131.575L135.934 22.8934H136.024V16.6128H138.149Z" fill="#454343"/>
<path d="M142.803 22.6734H145.367L144.125 18.8947H144.046L142.803 22.6734ZM141.511 26.5986H139.223L142.71 16.6128H145.461L148.942 26.5986H146.654L145.905 24.3217H142.261L141.511 26.5986Z" fill="#454343"/>
<path d="M153.097 16.6128H155.731L158.512 23.322H158.63L161.411 16.6128H164.044V26.5987H161.974V20.0995H161.89L159.276 26.5499H157.866L155.252 20.0747H155.169V26.5987H153.097V16.6128Z" fill="#454343"/>
<path d="M168.694 22.6734H171.258L170.016 18.8947H169.937L168.694 22.6734ZM167.402 26.5986H165.114L168.601 16.6128H171.352L174.833 26.5986H172.546L171.796 24.3217H168.152L167.402 26.5986Z" fill="#454343"/>
<path d="M178.042 21.3623H179.492C180.705 21.3623 181.312 20.8665 181.312 19.8748C181.312 18.851 180.702 18.3392 179.482 18.3392H178.042V21.3623ZM175.907 26.5987V16.6128H179.892C181.039 16.6128 181.929 16.909 182.562 17.5003C183.195 18.0922 183.511 18.8835 183.511 19.8748C183.511 20.5577 183.358 21.1413 183.05 21.6257C182.742 22.1097 182.302 22.4736 181.726 22.7177L183.871 26.5987H181.514L179.601 23.0589H178.042V26.5987H175.907Z" fill="#454343"/>
<path d="M184.881 26.5987V16.6128H187.016V21.016H187.149L190.784 16.6128H193.343L189.595 21.0842L193.388 26.5987H190.833L188.067 22.4934L187.016 23.7611V26.5987H184.881Z" fill="#454343"/>
<path d="M197.351 22.6734H199.916L198.673 18.8947H198.594L197.351 22.6734ZM196.06 26.5986H193.771L197.258 16.6128H200.01L203.491 26.5986H201.203L200.453 24.3217H196.809L196.06 26.5986Z" fill="#454343"/>
<path d="M204.457 26.5987V25.3455L209.497 18.354H204.447V16.6128H212.179V17.8659L207.134 24.8582H212.189V26.5987H204.457Z" fill="#454343"/>
<path d="M215.822 26.5986H213.687V16.6128H215.822V26.5986Z" fill="#454343"/>
</svg>
