<svg width="219" height="48" viewBox="0 0 219 48" fill="none" xmlns="http://www.w3.org/2000/svg">
<path d="M27.0438 37.3701C27.0438 22.6022 14.9359 10.6299 0 10.6299V37.3701H27.0438Z" fill="#55697A"/>
<path d="M27.0438 37.3701C27.0438 22.6022 39.1515 10.6299 54.0875 10.6299V37.3701H27.0438Z" fill="#E47762"/>
<path d="M67.6317 13H63.4476V3.55145H67.5597C68.4458 3.55145 69.1486 3.76316 69.6681 4.18659C70.1875 4.61002 70.4473 5.18405 70.4473 5.90868C70.4473 6.42377 70.277 6.87558 69.9365 7.26408C69.6004 7.65259 69.1792 7.88395 68.6728 7.95815V8.01054C69.3188 8.05855 69.8514 8.29646 70.2705 8.72425C70.6895 9.15205 70.8991 9.67587 70.8991 10.2957C70.8991 11.1295 70.6066 11.7886 70.0217 12.2732C69.4367 12.7577 68.6401 13 67.6317 13ZM65.4251 5.02472V7.48016H66.8459C67.3741 7.48016 67.7823 7.37103 68.0704 7.15277C68.3585 6.93014 68.5025 6.61803 68.5025 6.21643C68.5025 5.83665 68.376 5.54418 68.1228 5.33901C67.8696 5.12948 67.5116 5.02472 67.0489 5.02472H65.4251ZM65.4251 11.5267H67.1275C67.6993 11.5267 68.1337 11.4089 68.4305 11.1731C68.7317 10.9331 68.8823 10.5882 68.8823 10.1386C68.8823 9.6977 68.7274 9.36158 68.4174 9.13022C68.1119 8.89886 67.6666 8.78318 67.0817 8.78318H65.4251V11.5267ZM74.0027 3.55145V9.46416C74.0027 10.0797 74.1752 10.5686 74.52 10.9309C74.8692 11.2888 75.3581 11.4678 75.9867 11.4678C76.611 11.4678 77.0955 11.2888 77.4404 10.9309C77.7896 10.5686 77.9642 10.0797 77.9642 9.46416V3.55145H79.9416V9.6606C79.9416 10.7083 79.5815 11.5551 78.8612 12.2012C78.1454 12.8429 77.1872 13.1637 75.9867 13.1637C74.7819 13.1637 73.8194 12.8429 73.0991 12.2012C72.3832 11.5551 72.0253 10.7083 72.0253 9.6606V3.55145H74.0027ZM81.0155 13L84.0144 8.2659V8.21352L81.0351 3.55145H83.3596L85.3633 6.95633H85.4157L87.4389 3.55145H89.6456L86.555 8.25281V8.29864L89.6063 13H87.3538L85.2847 9.69333H85.2323L83.1501 13H81.0155ZM91.145 4.70387C91.9657 3.82646 93.0766 3.38775 94.4779 3.38775C95.8791 3.38775 96.9879 3.82646 97.8042 4.70387C98.6248 5.58128 99.0352 6.77299 99.0352 8.279C99.0352 9.78064 98.6248 10.9702 97.8042 11.8476C96.9835 12.725 95.8747 13.1637 94.4779 13.1637C93.0766 13.1637 91.9657 12.725 91.145 11.8476C90.3287 10.9702 89.9206 9.78064 89.9206 8.279C89.9206 6.77299 90.3287 5.58128 91.145 4.70387ZM96.3244 5.91522C95.866 5.33028 95.2505 5.03781 94.4779 5.03781C93.7052 5.03781 93.0875 5.33028 92.6248 5.91522C92.1665 6.50017 91.9373 7.28809 91.9373 8.279C91.9373 9.26554 92.1665 10.0513 92.6248 10.6362C93.0832 11.2168 93.7009 11.5071 94.4779 11.5071C95.2505 11.5071 95.866 11.2168 96.3244 10.6362C96.7827 10.0513 97.0119 9.26554 97.0119 8.279C97.0119 7.28809 96.7827 6.50017 96.3244 5.91522ZM102.289 5.09674V8.10875H103.992C104.49 8.10875 104.876 7.97562 105.151 7.70934C105.43 7.44306 105.57 7.07419 105.57 6.60275C105.57 6.1444 105.426 5.7799 105.138 5.50926C104.85 5.23425 104.461 5.09674 103.972 5.09674H102.289ZM102.289 9.54273V13H100.312V3.55145H104.182C105.26 3.55145 106.098 3.81991 106.696 4.35684C107.299 4.88939 107.6 5.62494 107.6 6.56346C107.6 7.17896 107.447 7.72898 107.141 8.21352C106.84 8.6937 106.421 9.03855 105.884 9.24808L107.875 13H105.635L103.874 9.54273H102.289ZM109.833 4.70387C110.653 3.82646 111.764 3.38775 113.165 3.38775C114.567 3.38775 115.675 3.82646 116.492 4.70387C117.312 5.58128 117.723 6.77299 117.723 8.279C117.723 9.78064 117.312 10.9702 116.492 11.8476C115.671 12.725 114.562 13.1637 113.165 13.1637C111.764 13.1637 110.653 12.725 109.833 11.8476C109.016 10.9702 108.608 9.78064 108.608 8.279C108.608 6.77299 109.016 5.58128 109.833 4.70387ZM115.012 5.91522C114.554 5.33028 113.938 5.03781 113.165 5.03781C112.393 5.03781 111.775 5.33028 111.312 5.91522C110.854 6.50017 110.625 7.28809 110.625 8.279C110.625 9.26554 110.854 10.0513 111.312 10.6362C111.771 11.2168 112.388 11.5071 113.165 11.5071C113.938 11.5071 114.554 11.2168 115.012 10.6362C115.47 10.0513 115.699 9.26554 115.699 8.279C115.699 7.28809 115.47 6.50017 115.012 5.91522ZM126.615 13H124.231L121.056 3.55145H123.269L125.43 10.9636H125.475L127.636 3.55145H129.79L126.615 13ZM132.737 13H130.76V3.55145H132.737V13ZM140.418 11.363V13H134.308V3.55145H136.286V11.363H140.418ZM142.127 4.70387C142.947 3.82646 144.058 3.38775 145.459 3.38775C146.861 3.38775 147.969 3.82646 148.786 4.70387C149.606 5.58128 150.017 6.77299 150.017 8.279C150.017 9.78064 149.606 10.9702 148.786 11.8476C147.965 12.725 146.856 13.1637 145.459 13.1637C144.058 13.1637 142.947 12.725 142.127 11.8476C141.31 10.9702 140.902 9.78064 140.902 8.279C140.902 6.77299 141.31 5.58128 142.127 4.70387ZM147.306 5.91522C146.848 5.33028 146.232 5.03781 145.459 5.03781C144.687 5.03781 144.069 5.33028 143.606 5.91522C143.148 6.50017 142.919 7.28809 142.919 8.279C142.919 9.26554 143.148 10.0513 143.606 10.6362C144.065 11.2168 144.682 11.5071 145.459 11.5071C146.232 11.5071 146.848 11.2168 147.306 10.6362C147.764 10.0513 147.993 9.26554 147.993 8.279C147.993 7.28809 147.764 6.50017 147.306 5.91522ZM155.393 13H153.415V9.47071L150.128 3.55145H152.282L154.397 7.58493H154.443L156.565 3.55145H158.686L155.393 9.47071V13ZM164.527 13L163.807 10.7083H160.487L159.767 13H157.737L161.017 3.55145H163.342L166.629 13H164.527ZM162.124 5.35866L160.912 9.22844H163.381L162.17 5.35866H162.124ZM170.551 13H168.573V5.18187H165.843V3.55145H173.288V5.18187H170.551V13ZM176.359 13H174.381V3.55145H176.359V13ZM69.6353 29L68.9151 26.7083H65.5953L64.875 29H62.8452L66.1257 19.5515H68.4502L71.7372 29H69.6353ZM67.2323 21.3587L66.0209 25.2284H68.4895L67.2781 21.3587H67.2323ZM72.0973 29L75.0962 24.2659V24.2135L72.117 19.5515H74.4415L76.4451 22.9563H76.4975L78.5208 19.5515H80.7274L77.6368 24.2528V24.2986L80.6881 29H78.4356L76.3665 25.6933H76.3141L74.2319 29H72.0973ZM85.9788 29H81.7947V19.5515H85.9067C86.7929 19.5515 87.4957 19.7632 88.0151 20.1866C88.5346 20.61 88.7943 21.184 88.7943 21.9087C88.7943 22.4238 88.6241 22.8756 88.2836 23.2641C87.9475 23.6526 87.5262 23.8839 87.0199 23.9582V24.0105C87.6659 24.0586 88.1985 24.2965 88.6175 24.7243C89.0366 25.152 89.2461 25.6759 89.2461 26.2957C89.2461 27.1295 88.9537 27.7886 88.3687 28.2732C87.7838 28.7577 86.9871 29 85.9788 29ZM83.7721 21.0247V23.4802H85.193C85.7212 23.4802 86.1294 23.371 86.4175 23.1528C86.7056 22.9301 86.8496 22.618 86.8496 22.2164C86.8496 21.8367 86.723 21.5442 86.4699 21.339C86.2167 21.1295 85.8587 21.0247 85.396 21.0247H83.7721ZM83.7721 27.5267H85.4746C86.0464 27.5267 86.4808 27.4089 86.7776 27.1731C87.0788 26.9331 87.2294 26.5882 87.2294 26.1386C87.2294 25.6977 87.0744 25.3616 86.7645 25.1302C86.4589 24.8989 86.0137 24.7832 85.4287 24.7832H83.7721V27.5267ZM91.3022 20.7039C92.1228 19.8265 93.2338 19.3878 94.635 19.3878C96.0363 19.3878 97.145 19.8265 97.9613 20.7039C98.782 21.5813 99.1923 22.773 99.1923 24.279C99.1923 25.7806 98.782 26.9702 97.9613 27.8476C97.1407 28.725 96.0319 29.1637 94.635 29.1637C93.2338 29.1637 92.1228 28.725 91.3022 27.8476C90.4859 26.9702 90.0777 25.7806 90.0777 24.279C90.0777 22.773 90.4859 21.5813 91.3022 20.7039ZM96.4815 21.9152C96.0232 21.3303 95.4077 21.0378 94.635 21.0378C93.8624 21.0378 93.2447 21.3303 92.782 21.9152C92.3236 22.5002 92.0945 23.2881 92.0945 24.279C92.0945 25.2655 92.3236 26.0513 92.782 26.6362C93.2403 27.2168 93.858 27.5071 94.635 27.5071C95.4077 27.5071 96.0232 27.2168 96.4815 26.6362C96.9399 26.0513 97.169 25.2655 97.169 24.279C97.169 23.2881 96.9399 22.5002 96.4815 21.9152ZM102.447 21.0967V24.1088H104.149C104.647 24.1088 105.033 23.9756 105.308 23.7093C105.587 23.4431 105.727 23.0742 105.727 22.6027C105.727 22.1444 105.583 21.7799 105.295 21.5093C105.007 21.2342 104.618 21.0967 104.129 21.0967H102.447ZM102.447 25.5427V29H100.469V19.5515H104.339C105.417 19.5515 106.255 19.8199 106.853 20.3568C107.456 20.8894 107.757 21.6249 107.757 22.5635C107.757 23.179 107.604 23.729 107.299 24.2135C106.997 24.6937 106.578 25.0385 106.041 25.2481L108.032 29H105.793L104.031 25.5427H102.447ZM109.99 20.7039C110.81 19.8265 111.921 19.3878 113.323 19.3878C114.724 19.3878 115.833 19.8265 116.649 20.7039C117.47 21.5813 117.88 22.773 117.88 24.279C117.88 25.7806 117.47 26.9702 116.649 27.8476C115.828 28.725 114.719 29.1637 113.323 29.1637C111.921 29.1637 110.81 28.725 109.99 27.8476C109.173 26.9702 108.765 25.7806 108.765 24.279C108.765 22.773 109.173 21.5813 109.99 20.7039ZM115.169 21.9152C114.711 21.3303 114.095 21.0378 113.323 21.0378C112.55 21.0378 111.932 21.3303 111.47 21.9152C111.011 22.5002 110.782 23.2881 110.782 24.279C110.782 25.2655 111.011 26.0513 111.47 26.6362C111.928 27.2168 112.546 27.5071 113.323 27.5071C114.095 27.5071 114.711 27.2168 115.169 26.6362C115.627 26.0513 115.857 25.2655 115.857 24.279C115.857 23.2881 115.627 22.5002 115.169 21.9152ZM122.869 29H120.892V21.1819H118.161V19.5515H125.606V21.1819H122.869V29ZM130.334 25.9945H126.032V24.3248H130.334V25.9945ZM133.916 29H131.938V19.5515H133.916V23.8599H133.975L137.523 19.5515H139.724L136.227 23.7421L139.966 29H137.602L134.8 25.0516L133.916 26.1124V29ZM142.742 19.5515V25.4642C142.742 26.0797 142.915 26.5686 143.259 26.9309C143.609 27.2888 144.097 27.4678 144.726 27.4678C145.35 27.4678 145.835 27.2888 146.18 26.9309C146.529 26.5686 146.704 26.0797 146.704 25.4642V19.5515H148.681V25.6606C148.681 26.7083 148.321 27.5551 147.601 28.2012C146.885 28.8429 145.927 29.1637 144.726 29.1637C143.521 29.1637 142.559 28.8429 141.838 28.2012C141.123 27.5551 140.765 26.7083 140.765 25.6606V19.5515H142.742ZM154.495 29H152.518V21.1819H149.788V19.5515H157.232V21.1819H154.495V29ZM160.303 19.5515V25.4642C160.303 26.0797 160.476 26.5686 160.821 26.9309C161.17 27.2888 161.659 27.4678 162.287 27.4678C162.912 27.4678 163.396 27.2888 163.741 26.9309C164.09 26.5686 164.265 26.0797 164.265 25.4642V19.5515H166.242V25.6606C166.242 26.7083 165.882 27.5551 165.162 28.2012C164.446 28.8429 163.488 29.1637 162.287 29.1637C161.083 29.1637 160.12 28.8429 159.4 28.2012C158.684 27.5551 158.326 26.7083 158.326 25.6606V19.5515H160.303ZM172.004 29H167.82V19.5515H171.932C172.819 19.5515 173.521 19.7632 174.041 20.1866C174.56 20.61 174.82 21.184 174.82 21.9087C174.82 22.4238 174.65 22.8756 174.309 23.2641C173.973 23.6526 173.552 23.8839 173.046 23.9582V24.0105C173.692 24.0586 174.224 24.2965 174.643 24.7243C175.062 25.152 175.272 25.6759 175.272 26.2957C175.272 27.1295 174.979 27.7886 174.394 28.2732C173.809 28.7577 173.013 29 172.004 29ZM169.798 21.0247V23.4802H171.219C171.747 23.4802 172.155 23.371 172.443 23.1528C172.731 22.9301 172.875 22.618 172.875 22.2164C172.875 21.8367 172.749 21.5442 172.496 21.339C172.242 21.1295 171.884 21.0247 171.422 21.0247H169.798ZM169.798 27.5267H171.5C172.072 27.5267 172.506 27.4089 172.803 27.1731C173.104 26.9331 173.255 26.5882 173.255 26.1386C173.255 25.6977 173.1 25.3616 172.79 25.1302C172.485 24.8989 172.039 24.7832 171.454 24.7832H169.798V27.5267ZM175.789 29L178.788 24.2659V24.2135L175.809 19.5515H178.133L180.137 22.9563H180.189L182.213 19.5515H184.419L181.329 24.2528V24.2986L184.38 29H182.127L180.058 25.6933H180.006L177.924 29H175.789ZM185.919 20.7039C186.739 19.8265 187.85 19.3878 189.251 19.3878C190.653 19.3878 191.761 19.8265 192.578 20.7039C193.398 21.5813 193.809 22.773 193.809 24.279C193.809 25.7806 193.398 26.9702 192.578 27.8476C191.757 28.725 190.648 29.1637 189.251 29.1637C187.85 29.1637 186.739 28.725 185.919 27.8476C185.102 26.9702 184.694 25.7806 184.694 24.279C184.694 22.773 185.102 21.5813 185.919 20.7039ZM191.098 21.9152C190.64 21.3303 190.024 21.0378 189.251 21.0378C188.479 21.0378 187.861 21.3303 187.398 21.9152C186.94 22.5002 186.711 23.2881 186.711 24.279C186.711 25.2655 186.94 26.0513 187.398 26.6362C187.857 27.2168 188.474 27.5071 189.251 27.5071C190.024 27.5071 190.64 27.2168 191.098 26.6362C191.556 26.0513 191.785 25.2655 191.785 24.279C191.785 23.2881 191.556 22.5002 191.098 21.9152ZM196.978 29H195.086V19.5515H196.736L201.149 25.7064H201.201V19.5515H203.094V29H201.457L197.037 22.8123H196.978V29ZM210.859 29L210.139 26.7083H206.819L206.099 29H204.069L207.35 19.5515H209.674L212.961 29H210.859ZM208.456 21.3587L207.245 25.2284H209.714L208.502 21.3587H208.456ZM73.4527 45H71.6914V38.6224H71.639L69.0722 44.9083H67.8281L65.2614 38.6224H65.209V45H63.4476V35.5515H65.7394L68.424 42.2499H68.4764L71.161 35.5515H73.4527V45ZM81.2119 45L80.4917 42.7083H77.1719L76.4516 45H74.4218L77.7023 35.5515H80.0268L83.3138 45H81.2119ZM78.8089 37.3587L77.5975 41.2284H80.0661L78.8547 37.3587H78.8089ZM86.2603 37.0967V40.1088H87.9628C88.4604 40.1088 88.8467 39.9756 89.1217 39.7093C89.4011 39.4431 89.5408 39.0742 89.5408 38.6027C89.5408 38.1444 89.3967 37.7799 89.1086 37.5093C88.8205 37.2342 88.432 37.0967 87.9431 37.0967H86.2603ZM86.2603 41.5427V45H84.2829V35.5515H88.1526C89.2309 35.5515 90.069 35.8199 90.667 36.3568C91.2694 36.8894 91.5706 37.6249 91.5706 38.5635C91.5706 39.179 91.4178 39.729 91.1123 40.2135C90.8111 40.6937 90.392 41.0385 89.8551 41.2481L91.8456 45H89.6063L87.8449 41.5427H86.2603ZM94.8511 45H92.8737V35.5515H94.8511V39.8599H94.91L98.459 35.5515H100.659L97.1625 39.7421L100.901 45H98.5375L95.7351 41.0516L94.8511 42.1124V45ZM107.927 45L107.207 42.7083H103.887L103.167 45H101.137L104.418 35.5515H106.742L110.029 45H107.927ZM105.524 37.3587L104.313 41.2284H106.781L105.57 37.3587H105.524ZM110.795 45V43.7101L115.595 37.2342V37.1819H110.906V35.5515H117.958V36.8348L113.179 43.3172V43.363H118.089V45H110.795ZM121.435 45H119.458V35.5515H121.435V45Z" fill="#454343"/>
</svg>
