<svg width="219" height="48" viewBox="0 0 219 48" fill="none" xmlns="http://www.w3.org/2000/svg">
<path d="M27.0438 37.3701C27.0438 22.6022 14.9359 10.6299 0 10.6299V37.3701H27.0438Z" fill="#55697A"/>
<path d="M27.0438 37.3701C27.0438 22.6022 39.1515 10.6299 54.0875 10.6299V37.3701H27.0438Z" fill="#E47762"/>
<path d="M63.094 10.3088H64.9994C65.0431 10.693 65.2461 11.0051 65.6084 11.2452C65.9751 11.4809 66.4225 11.5988 66.9507 11.5988C67.4745 11.5988 67.9001 11.4874 68.2275 11.2648C68.5593 11.0378 68.7252 10.7497 68.7252 10.4005C68.7252 10.0949 68.6029 9.8483 68.3585 9.6606C68.114 9.47289 67.7059 9.31574 67.134 9.18915L65.9031 8.92069C64.1701 8.54964 63.3036 7.67005 63.3036 6.2819C63.3036 5.41759 63.6397 4.71915 64.3119 4.18659C64.9885 3.65403 65.8572 3.38775 66.918 3.38775C68.0093 3.38775 68.8801 3.64749 69.5306 4.16695C70.181 4.68205 70.5149 5.36957 70.5324 6.22952H68.6793C68.6488 5.83229 68.472 5.52017 68.149 5.29318C67.8303 5.06182 67.4222 4.94614 66.9245 4.94614C66.4356 4.94614 66.0406 5.05309 65.7394 5.26699C65.4425 5.48088 65.2941 5.76244 65.2941 6.11166C65.2941 6.39977 65.4141 6.63331 65.6542 6.81228C65.8987 6.99125 66.2937 7.14404 66.8394 7.27063L67.9853 7.5129C68.9325 7.7137 69.6222 8.028 70.0544 8.45579C70.4865 8.87922 70.7026 9.45106 70.7026 10.1713C70.7026 11.088 70.3578 11.817 69.6681 12.3583C68.9784 12.8952 68.0464 13.1637 66.8721 13.1637C65.7328 13.1637 64.8248 12.9105 64.1482 12.4041C63.476 11.8934 63.1246 11.195 63.094 10.3088ZM77.9118 13L77.1915 10.7083H73.8718L73.1515 13H71.1217L74.4022 3.55145H76.7267L80.0137 13H77.9118ZM75.5088 5.35866L74.2974 9.22844H76.7659L75.5546 5.35866H75.5088ZM90.9879 13H89.2265V6.62239H89.1741L86.6074 12.9083H85.3633L82.7965 6.62239H82.7441V13H80.9828V3.55145H83.2745L85.9591 10.2499H86.0115L88.6961 3.55145H90.9879V13ZM98.7471 13L98.0268 10.7083H94.7071L93.9868 13H91.957L95.2374 3.55145H97.5619L100.849 13H98.7471ZM96.344 5.35866L95.1327 9.22844H97.6012L96.3898 5.35866H96.344ZM103.795 5.09674V8.10875H105.498C105.996 8.10875 106.382 7.97562 106.657 7.70934C106.936 7.44306 107.076 7.07419 107.076 6.60275C107.076 6.1444 106.932 5.7799 106.644 5.50926C106.356 5.23425 105.967 5.09674 105.478 5.09674H103.795ZM103.795 9.54273V13H101.818V3.55145H105.688C106.766 3.55145 107.604 3.81991 108.202 4.35684C108.805 4.88939 109.106 5.62494 109.106 6.56346C109.106 7.17896 108.953 7.72898 108.647 8.21352C108.346 8.6937 107.927 9.03855 107.39 9.24808L109.381 13H107.141L105.38 9.54273H103.795ZM114.671 13.1637C113.266 13.1637 112.155 12.7272 111.339 11.8541C110.522 10.9811 110.114 9.78937 110.114 8.279C110.114 6.77736 110.522 5.58783 111.339 4.71042C112.159 3.82864 113.27 3.38775 114.671 3.38775C116.068 3.38775 117.175 3.82864 117.991 4.71042C118.812 5.58783 119.222 6.77736 119.222 8.279C119.222 9.10839 119.093 9.85048 118.836 10.5053C118.578 11.1557 118.205 11.6817 117.716 12.0833L118.914 13.8905H116.996L116.322 12.9018C115.824 13.0764 115.274 13.1637 114.671 13.1637ZM114.671 11.5267C114.903 11.5267 115.128 11.4962 115.346 11.4351L114.311 9.88977H116.099L116.511 10.4529C116.974 9.92033 117.205 9.1957 117.205 8.279C117.205 7.28809 116.976 6.49798 116.518 5.90868C116.06 5.315 115.444 5.01817 114.671 5.01817C113.894 5.01817 113.277 5.315 112.818 5.90868C112.36 6.49798 112.131 7.28809 112.131 8.279C112.131 9.26991 112.36 10.06 112.818 10.6493C113.277 11.2343 113.894 11.5267 114.671 11.5267ZM126.3 13L125.58 10.7083H122.26L121.54 13H119.51L122.791 3.55145H125.115L128.402 13H126.3ZM123.897 5.35866L122.686 9.22844H125.155L123.943 5.35866H123.897ZM131.264 13H129.371V3.55145H131.021L135.435 9.70643H135.487V3.55145H137.379V13H135.742L131.323 6.81228H131.264V13ZM138.957 3.55145H142.565C143.988 3.55145 145.095 3.9596 145.885 4.7759C146.675 5.5922 147.07 6.7468 147.07 8.23971C147.07 9.73699 146.673 10.9047 145.879 11.7428C145.088 12.5809 143.984 13 142.565 13H138.957V3.55145ZM140.935 5.18187V11.363H142.33C143.216 11.363 143.89 11.0989 144.353 10.5707C144.82 10.0382 145.053 9.26336 145.053 8.24626C145.053 7.25972 144.818 6.50235 144.346 5.97416C143.875 5.44596 143.203 5.18187 142.33 5.18187H140.935ZM155.962 13H153.579L150.403 3.55145H152.616L154.777 10.9636H154.823L156.984 3.55145H159.138L155.962 13ZM162.084 13H160.107V3.55145H162.084V13ZM169.765 11.363V13H163.656V3.55145H165.633V11.363H169.765ZM171.474 4.70387C172.295 3.82646 173.406 3.38775 174.807 3.38775C176.208 3.38775 177.317 3.82646 178.133 4.70387C178.954 5.58128 179.364 6.77299 179.364 8.279C179.364 9.78064 178.954 10.9702 178.133 11.8476C177.313 12.725 176.204 13.1637 174.807 13.1637C173.406 13.1637 172.295 12.725 171.474 11.8476C170.658 10.9702 170.25 9.78064 170.25 8.279C170.25 6.77299 170.658 5.58128 171.474 4.70387ZM176.653 5.91522C176.195 5.33028 175.58 5.03781 174.807 5.03781C174.034 5.03781 173.417 5.33028 172.954 5.91522C172.496 6.50017 172.266 7.28809 172.266 8.279C172.266 9.26554 172.496 10.0513 172.954 10.6362C173.412 11.2168 174.03 11.5071 174.807 11.5071C175.58 11.5071 176.195 11.2168 176.653 10.6362C177.112 10.0513 177.341 9.26554 177.341 8.279C177.341 7.28809 177.112 6.50017 176.653 5.91522ZM184.74 13H182.763V9.47071L179.476 3.55145H181.63L183.745 7.58493H183.791L185.912 3.55145H188.034L184.74 9.47071V13ZM193.874 13L193.154 10.7083H189.834L189.114 13H187.084L190.365 3.55145H192.689L195.976 13H193.874ZM191.471 5.35866L190.26 9.22844H192.728L191.517 5.35866H191.471ZM199.898 13H197.921V5.18187H195.19V3.55145H202.635V5.18187H199.898V13ZM205.706 13H203.729V3.55145H205.706V13ZM69.6353 29L68.9151 26.7083H65.5953L64.875 29H62.8452L66.1257 19.5515H68.4502L71.7372 29H69.6353ZM67.2323 21.3587L66.0209 25.2284H68.4895L67.2781 21.3587H67.2323ZM72.0973 29L75.0962 24.2659V24.2135L72.117 19.5515H74.4415L76.4451 22.9563H76.4975L78.5208 19.5515H80.7274L77.6368 24.2528V24.2986L80.6881 29H78.4356L76.3665 25.6933H76.3141L74.2319 29H72.0973ZM85.9788 29H81.7947V19.5515H85.9067C86.7929 19.5515 87.4957 19.7632 88.0151 20.1866C88.5346 20.61 88.7943 21.184 88.7943 21.9087C88.7943 22.4238 88.6241 22.8756 88.2836 23.2641C87.9475 23.6526 87.5262 23.8839 87.0199 23.9582V24.0105C87.6659 24.0586 88.1985 24.2965 88.6175 24.7243C89.0366 25.152 89.2461 25.6759 89.2461 26.2957C89.2461 27.1295 88.9537 27.7886 88.3687 28.2732C87.7838 28.7577 86.9871 29 85.9788 29ZM83.7721 21.0247V23.4802H85.193C85.7212 23.4802 86.1294 23.371 86.4175 23.1528C86.7056 22.9301 86.8496 22.618 86.8496 22.2164C86.8496 21.8367 86.723 21.5442 86.4699 21.339C86.2167 21.1295 85.8587 21.0247 85.396 21.0247H83.7721ZM83.7721 27.5267H85.4746C86.0464 27.5267 86.4808 27.4089 86.7776 27.1731C87.0788 26.9331 87.2294 26.5882 87.2294 26.1386C87.2294 25.6977 87.0744 25.3616 86.7645 25.1302C86.4589 24.8989 86.0137 24.7832 85.4287 24.7832H83.7721V27.5267ZM91.3022 20.7039C92.1228 19.8265 93.2338 19.3878 94.635 19.3878C96.0363 19.3878 97.145 19.8265 97.9613 20.7039C98.782 21.5813 99.1923 22.773 99.1923 24.279C99.1923 25.7806 98.782 26.9702 97.9613 27.8476C97.1407 28.725 96.0319 29.1637 94.635 29.1637C93.2338 29.1637 92.1228 28.725 91.3022 27.8476C90.4859 26.9702 90.0777 25.7806 90.0777 24.279C90.0777 22.773 90.4859 21.5813 91.3022 20.7039ZM96.4815 21.9152C96.0232 21.3303 95.4077 21.0378 94.635 21.0378C93.8624 21.0378 93.2447 21.3303 92.782 21.9152C92.3236 22.5002 92.0945 23.2881 92.0945 24.279C92.0945 25.2655 92.3236 26.0513 92.782 26.6362C93.2403 27.2168 93.858 27.5071 94.635 27.5071C95.4077 27.5071 96.0232 27.2168 96.4815 26.6362C96.9399 26.0513 97.169 25.2655 97.169 24.279C97.169 23.2881 96.9399 22.5002 96.4815 21.9152ZM102.447 21.0967V24.1088H104.149C104.647 24.1088 105.033 23.9756 105.308 23.7093C105.587 23.4431 105.727 23.0742 105.727 22.6027C105.727 22.1444 105.583 21.7799 105.295 21.5093C105.007 21.2342 104.618 21.0967 104.129 21.0967H102.447ZM102.447 25.5427V29H100.469V19.5515H104.339C105.417 19.5515 106.255 19.8199 106.853 20.3568C107.456 20.8894 107.757 21.6249 107.757 22.5635C107.757 23.179 107.604 23.729 107.299 24.2135C106.997 24.6937 106.578 25.0385 106.041 25.2481L108.032 29H105.793L104.031 25.5427H102.447ZM109.99 20.7039C110.81 19.8265 111.921 19.3878 113.323 19.3878C114.724 19.3878 115.833 19.8265 116.649 20.7039C117.47 21.5813 117.88 22.773 117.88 24.279C117.88 25.7806 117.47 26.9702 116.649 27.8476C115.828 28.725 114.719 29.1637 113.323 29.1637C111.921 29.1637 110.81 28.725 109.99 27.8476C109.173 26.9702 108.765 25.7806 108.765 24.279C108.765 22.773 109.173 21.5813 109.99 20.7039ZM115.169 21.9152C114.711 21.3303 114.095 21.0378 113.323 21.0378C112.55 21.0378 111.932 21.3303 111.47 21.9152C111.011 22.5002 110.782 23.2881 110.782 24.279C110.782 25.2655 111.011 26.0513 111.47 26.6362C111.928 27.2168 112.546 27.5071 113.323 27.5071C114.095 27.5071 114.711 27.2168 115.169 26.6362C115.627 26.0513 115.857 25.2655 115.857 24.279C115.857 23.2881 115.627 22.5002 115.169 21.9152ZM122.869 29H120.892V21.1819H118.161V19.5515H125.606V21.1819H122.869V29ZM130.334 25.9945H126.032V24.3248H130.334V25.9945ZM133.916 29H131.938V19.5515H133.916V23.8599H133.975L137.523 19.5515H139.724L136.227 23.7421L139.966 29H137.602L134.8 25.0516L133.916 26.1124V29ZM142.742 19.5515V25.4642C142.742 26.0797 142.915 26.5686 143.259 26.9309C143.609 27.2888 144.097 27.4678 144.726 27.4678C145.35 27.4678 145.835 27.2888 146.18 26.9309C146.529 26.5686 146.704 26.0797 146.704 25.4642V19.5515H148.681V25.6606C148.681 26.7083 148.321 27.5551 147.601 28.2012C146.885 28.8429 145.927 29.1637 144.726 29.1637C143.521 29.1637 142.559 28.8429 141.838 28.2012C141.123 27.5551 140.765 26.7083 140.765 25.6606V19.5515H142.742ZM154.495 29H152.518V21.1819H149.788V19.5515H157.232V21.1819H154.495V29ZM160.303 19.5515V25.4642C160.303 26.0797 160.476 26.5686 160.821 26.9309C161.17 27.2888 161.659 27.4678 162.287 27.4678C162.912 27.4678 163.396 27.2888 163.741 26.9309C164.09 26.5686 164.265 26.0797 164.265 25.4642V19.5515H166.242V25.6606C166.242 26.7083 165.882 27.5551 165.162 28.2012C164.446 28.8429 163.488 29.1637 162.287 29.1637C161.083 29.1637 160.12 28.8429 159.4 28.2012C158.684 27.5551 158.326 26.7083 158.326 25.6606V19.5515H160.303ZM172.004 29H167.82V19.5515H171.932C172.819 19.5515 173.521 19.7632 174.041 20.1866C174.56 20.61 174.82 21.184 174.82 21.9087C174.82 22.4238 174.65 22.8756 174.309 23.2641C173.973 23.6526 173.552 23.8839 173.046 23.9582V24.0105C173.692 24.0586 174.224 24.2965 174.643 24.7243C175.062 25.152 175.272 25.6759 175.272 26.2957C175.272 27.1295 174.979 27.7886 174.394 28.2732C173.809 28.7577 173.013 29 172.004 29ZM169.798 21.0247V23.4802H171.219C171.747 23.4802 172.155 23.371 172.443 23.1528C172.731 22.9301 172.875 22.618 172.875 22.2164C172.875 21.8367 172.749 21.5442 172.496 21.339C172.242 21.1295 171.884 21.0247 171.422 21.0247H169.798ZM169.798 27.5267H171.5C172.072 27.5267 172.506 27.4089 172.803 27.1731C173.104 26.9331 173.255 26.5882 173.255 26.1386C173.255 25.6977 173.1 25.3616 172.79 25.1302C172.485 24.8989 172.039 24.7832 171.454 24.7832H169.798V27.5267ZM175.789 29L178.788 24.2659V24.2135L175.809 19.5515H178.133L180.137 22.9563H180.189L182.213 19.5515H184.419L181.329 24.2528V24.2986L184.38 29H182.127L180.058 25.6933H180.006L177.924 29H175.789ZM185.919 20.7039C186.739 19.8265 187.85 19.3878 189.251 19.3878C190.653 19.3878 191.761 19.8265 192.578 20.7039C193.398 21.5813 193.809 22.773 193.809 24.279C193.809 25.7806 193.398 26.9702 192.578 27.8476C191.757 28.725 190.648 29.1637 189.251 29.1637C187.85 29.1637 186.739 28.725 185.919 27.8476C185.102 26.9702 184.694 25.7806 184.694 24.279C184.694 22.773 185.102 21.5813 185.919 20.7039ZM191.098 21.9152C190.64 21.3303 190.024 21.0378 189.251 21.0378C188.479 21.0378 187.861 21.3303 187.398 21.9152C186.94 22.5002 186.711 23.2881 186.711 24.279C186.711 25.2655 186.94 26.0513 187.398 26.6362C187.857 27.2168 188.474 27.5071 189.251 27.5071C190.024 27.5071 190.64 27.2168 191.098 26.6362C191.556 26.0513 191.785 25.2655 191.785 24.279C191.785 23.2881 191.556 22.5002 191.098 21.9152ZM196.978 29H195.086V19.5515H196.736L201.149 25.7064H201.201V19.5515H203.094V29H201.457L197.037 22.8123H196.978V29ZM210.859 29L210.139 26.7083H206.819L206.099 29H204.069L207.35 19.5515H209.674L212.961 29H210.859ZM208.456 21.3587L207.245 25.2284H209.714L208.502 21.3587H208.456ZM73.4527 45H71.6914V38.6224H71.639L69.0722 44.9083H67.8281L65.2614 38.6224H65.209V45H63.4476V35.5515H65.7394L68.424 42.2499H68.4764L71.161 35.5515H73.4527V45ZM81.2119 45L80.4917 42.7083H77.1719L76.4516 45H74.4218L77.7023 35.5515H80.0268L83.3138 45H81.2119ZM78.8089 37.3587L77.5975 41.2284H80.0661L78.8547 37.3587H78.8089ZM86.2603 37.0967V40.1088H87.9628C88.4604 40.1088 88.8467 39.9756 89.1217 39.7093C89.4011 39.4431 89.5408 39.0742 89.5408 38.6027C89.5408 38.1444 89.3967 37.7799 89.1086 37.5093C88.8205 37.2342 88.432 37.0967 87.9431 37.0967H86.2603ZM86.2603 41.5427V45H84.2829V35.5515H88.1526C89.2309 35.5515 90.069 35.8199 90.667 36.3568C91.2694 36.8894 91.5706 37.6249 91.5706 38.5635C91.5706 39.179 91.4178 39.729 91.1123 40.2135C90.8111 40.6937 90.392 41.0385 89.8551 41.2481L91.8456 45H89.6063L87.8449 41.5427H86.2603ZM94.8511 45H92.8737V35.5515H94.8511V39.8599H94.91L98.459 35.5515H100.659L97.1625 39.7421L100.901 45H98.5375L95.7351 41.0516L94.8511 42.1124V45ZM107.927 45L107.207 42.7083H103.887L103.167 45H101.137L104.418 35.5515H106.742L110.029 45H107.927ZM105.524 37.3587L104.313 41.2284H106.781L105.57 37.3587H105.524ZM110.795 45V43.7101L115.595 37.2342V37.1819H110.906V35.5515H117.958V36.8348L113.179 43.3172V43.363H118.089V45H110.795ZM121.435 45H119.458V35.5515H121.435V45Z" fill="#454343"/>
</svg>
