<svg width="219" height="48" viewBox="0 0 219 48" fill="none" xmlns="http://www.w3.org/2000/svg">
<path d="M27.0438 37.3701C27.0438 22.6022 14.9359 10.6299 0 10.6299V37.3701H27.0438Z" fill="#55697A"/>
<path d="M27.0438 37.3701C27.0438 22.6022 39.1515 10.6299 54.0875 10.6299V37.3701H27.0438Z" fill="#E47762"/>
<path d="M67.6841 13H65.7066V5.18187H62.9762V3.55145H70.4211V5.18187H67.6841V13ZM71.9205 4.70387C72.7412 3.82646 73.8521 3.38775 75.2534 3.38775C76.6546 3.38775 77.7634 3.82646 78.5797 4.70387C79.4004 5.58128 79.8107 6.77299 79.8107 8.279C79.8107 9.78064 79.4004 10.9702 78.5797 11.8476C77.759 12.725 76.6503 13.1637 75.2534 13.1637C73.8521 13.1637 72.7412 12.725 71.9205 11.8476C71.1042 10.9702 70.6961 9.78064 70.6961 8.279C70.6961 6.77299 71.1042 5.58128 71.9205 4.70387ZM77.0999 5.91522C76.6415 5.33028 76.026 5.03781 75.2534 5.03781C74.4807 5.03781 73.8631 5.33028 73.4003 5.91522C72.942 6.50017 72.7128 7.28809 72.7128 8.279C72.7128 9.26554 72.942 10.0513 73.4003 10.6362C73.8587 11.2168 74.4764 11.5071 75.2534 11.5071C76.026 11.5071 76.6415 11.2168 77.0999 10.6362C77.5582 10.0513 77.7874 9.26554 77.7874 8.279C77.7874 7.28809 77.5582 6.50017 77.0999 5.91522ZM80.7339 10.3088H82.6394C82.683 10.693 82.886 11.0051 83.2483 11.2452C83.615 11.4809 84.0624 11.5988 84.5906 11.5988C85.1144 11.5988 85.5401 11.4874 85.8675 11.2648C86.1992 11.0378 86.3651 10.7497 86.3651 10.4005C86.3651 10.0949 86.2429 9.8483 85.9984 9.6606C85.754 9.47289 85.3458 9.31574 84.774 9.18915L83.543 8.92069C81.81 8.54964 80.9435 7.67005 80.9435 6.2819C80.9435 5.41759 81.2796 4.71915 81.9518 4.18659C82.6284 3.65403 83.4971 3.38775 84.5579 3.38775C85.6492 3.38775 86.5201 3.64749 87.1705 4.16695C87.8209 4.68205 88.1548 5.36957 88.1723 6.22952H86.3193C86.2887 5.83229 86.1119 5.52017 85.7889 5.29318C85.4702 5.06182 85.0621 4.94614 84.5644 4.94614C84.0755 4.94614 83.6805 5.05309 83.3793 5.26699C83.0824 5.48088 82.934 5.76244 82.934 6.11166C82.934 6.39977 83.0541 6.63331 83.2941 6.81228C83.5386 6.99125 83.9337 7.14404 84.4793 7.27063L85.6252 7.5129C86.5724 7.7137 87.2621 8.028 87.6943 8.45579C88.1265 8.87922 88.3425 9.45106 88.3425 10.1713C88.3425 11.088 87.9977 11.817 87.308 12.3583C86.6183 12.8952 85.6863 13.1637 84.512 13.1637C83.3727 13.1637 82.4648 12.9105 81.7881 12.4041C81.1159 11.8934 80.7645 11.195 80.7339 10.3088ZM97.7714 13H95.794V9.01891H91.5379V13H89.5604V3.55145H91.5379V7.38849H95.794V3.55145H97.7714V13ZM101.32 13H99.3429V3.55145H101.32V7.85994H101.379L104.928 3.55145H107.128L103.632 7.74208L107.371 13H105.007L102.204 9.05165L101.32 10.1124V13ZM114.468 11.363V13H108.209V3.55145H114.468V5.18187H110.186V7.46052H114.226V8.97962H110.186V11.363H114.468ZM117.788 13H115.896V3.55145H117.546L121.959 9.70643H122.012V3.55145H123.904V13H122.267L117.847 6.81228H117.788V13ZM129.718 13H127.741V5.18187H125.011V3.55145H132.455V5.18187H129.718V13ZM135.854 10.3088H137.759C137.803 10.693 138.006 11.0051 138.368 11.2452C138.735 11.4809 139.182 11.5988 139.71 11.5988C140.234 11.5988 140.66 11.4874 140.987 11.2648C141.319 11.0378 141.485 10.7497 141.485 10.4005C141.485 10.0949 141.363 9.8483 141.118 9.6606C140.874 9.47289 140.466 9.31574 139.894 9.18915L138.663 8.92069C136.93 8.54964 136.063 7.67005 136.063 6.2819C136.063 5.41759 136.399 4.71915 137.072 4.18659C137.748 3.65403 138.617 3.38775 139.678 3.38775C140.769 3.38775 141.64 3.64749 142.29 4.16695C142.941 4.68205 143.275 5.36957 143.292 6.22952H141.439C141.409 5.83229 141.232 5.52017 140.909 5.29318C140.59 5.06182 140.182 4.94614 139.684 4.94614C139.195 4.94614 138.8 5.05309 138.499 5.26699C138.202 5.48088 138.054 5.76244 138.054 6.11166C138.054 6.39977 138.174 6.63331 138.414 6.81228C138.658 6.99125 139.053 7.14404 139.599 7.27063L140.745 7.5129C141.692 7.7137 142.382 8.028 142.814 8.45579C143.246 8.87922 143.462 9.45106 143.462 10.1713C143.462 11.088 143.118 11.817 142.428 12.3583C141.738 12.8952 140.806 13.1637 139.632 13.1637C138.493 13.1637 137.585 12.9105 136.908 12.4041C136.236 11.8934 135.884 11.195 135.854 10.3088ZM152.891 13H150.914V9.01891H146.658V13H144.68V3.55145H146.658V7.38849H150.914V3.55145H152.891V13ZM160.65 13L159.93 10.7083H156.61L155.89 13H153.86L157.141 3.55145H159.465L162.752 13H160.65ZM158.247 5.35866L157.036 9.22844H159.505L158.293 5.35866H158.247ZM171.932 13H169.955V9.01891H165.699V13H163.721V3.55145H165.699V7.38849H169.955V3.55145H171.932V13ZM179.692 13L178.971 10.7083H175.652L174.931 13H172.901L176.182 3.55145H178.506L181.793 13H179.692ZM177.289 5.35866L176.077 9.22844H178.546L177.334 5.35866H177.289ZM184.74 5.09674V8.10875H186.442C186.94 8.10875 187.326 7.97562 187.601 7.70934C187.881 7.44306 188.02 7.07419 188.02 6.60275C188.02 6.1444 187.876 5.7799 187.588 5.50926C187.3 5.23425 186.912 5.09674 186.423 5.09674H184.74ZM184.74 9.54273V13H182.763V3.55145H186.632C187.711 3.55145 188.549 3.81991 189.147 4.35684C189.749 4.88939 190.05 5.62494 190.05 6.56346C190.05 7.17896 189.898 7.72898 189.592 8.21352C189.291 8.6937 188.872 9.03855 188.335 9.24808L190.325 13H188.086L186.325 9.54273H184.74ZM69.6353 29L68.9151 26.7083H65.5953L64.875 29H62.8452L66.1257 19.5515H68.4502L71.7372 29H69.6353ZM67.2323 21.3587L66.0209 25.2284H68.4895L67.2781 21.3587H67.2323ZM72.0973 29L75.0962 24.2659V24.2135L72.117 19.5515H74.4415L76.4451 22.9563H76.4975L78.5208 19.5515H80.7274L77.6368 24.2528V24.2986L80.6881 29H78.4356L76.3665 25.6933H76.3141L74.2319 29H72.0973ZM85.9788 29H81.7947V19.5515H85.9067C86.7929 19.5515 87.4957 19.7632 88.0151 20.1866C88.5346 20.61 88.7943 21.184 88.7943 21.9087C88.7943 22.4238 88.6241 22.8756 88.2836 23.2641C87.9475 23.6526 87.5262 23.8839 87.0199 23.9582V24.0105C87.6659 24.0586 88.1985 24.2965 88.6175 24.7243C89.0366 25.152 89.2461 25.6759 89.2461 26.2957C89.2461 27.1295 88.9537 27.7886 88.3687 28.2732C87.7838 28.7577 86.9871 29 85.9788 29ZM83.7721 21.0247V23.4802H85.193C85.7212 23.4802 86.1294 23.371 86.4175 23.1528C86.7056 22.9301 86.8496 22.618 86.8496 22.2164C86.8496 21.8367 86.723 21.5442 86.4699 21.339C86.2167 21.1295 85.8587 21.0247 85.396 21.0247H83.7721ZM83.7721 27.5267H85.4746C86.0464 27.5267 86.4808 27.4089 86.7776 27.1731C87.0788 26.9331 87.2294 26.5882 87.2294 26.1386C87.2294 25.6977 87.0744 25.3616 86.7645 25.1302C86.4589 24.8989 86.0137 24.7832 85.4287 24.7832H83.7721V27.5267ZM91.3022 20.7039C92.1228 19.8265 93.2338 19.3878 94.635 19.3878C96.0363 19.3878 97.145 19.8265 97.9613 20.7039C98.782 21.5813 99.1923 22.773 99.1923 24.279C99.1923 25.7806 98.782 26.9702 97.9613 27.8476C97.1407 28.725 96.0319 29.1637 94.635 29.1637C93.2338 29.1637 92.1228 28.725 91.3022 27.8476C90.4859 26.9702 90.0777 25.7806 90.0777 24.279C90.0777 22.773 90.4859 21.5813 91.3022 20.7039ZM96.4815 21.9152C96.0232 21.3303 95.4077 21.0378 94.635 21.0378C93.8624 21.0378 93.2447 21.3303 92.782 21.9152C92.3236 22.5002 92.0945 23.2881 92.0945 24.279C92.0945 25.2655 92.3236 26.0513 92.782 26.6362C93.2403 27.2168 93.858 27.5071 94.635 27.5071C95.4077 27.5071 96.0232 27.2168 96.4815 26.6362C96.9399 26.0513 97.169 25.2655 97.169 24.279C97.169 23.2881 96.9399 22.5002 96.4815 21.9152ZM102.447 21.0967V24.1088H104.149C104.647 24.1088 105.033 23.9756 105.308 23.7093C105.587 23.4431 105.727 23.0742 105.727 22.6027C105.727 22.1444 105.583 21.7799 105.295 21.5093C105.007 21.2342 104.618 21.0967 104.129 21.0967H102.447ZM102.447 25.5427V29H100.469V19.5515H104.339C105.417 19.5515 106.255 19.8199 106.853 20.3568C107.456 20.8894 107.757 21.6249 107.757 22.5635C107.757 23.179 107.604 23.729 107.299 24.2135C106.997 24.6937 106.578 25.0385 106.041 25.2481L108.032 29H105.793L104.031 25.5427H102.447ZM109.99 20.7039C110.81 19.8265 111.921 19.3878 113.323 19.3878C114.724 19.3878 115.833 19.8265 116.649 20.7039C117.47 21.5813 117.88 22.773 117.88 24.279C117.88 25.7806 117.47 26.9702 116.649 27.8476C115.828 28.725 114.719 29.1637 113.323 29.1637C111.921 29.1637 110.81 28.725 109.99 27.8476C109.173 26.9702 108.765 25.7806 108.765 24.279C108.765 22.773 109.173 21.5813 109.99 20.7039ZM115.169 21.9152C114.711 21.3303 114.095 21.0378 113.323 21.0378C112.55 21.0378 111.932 21.3303 111.47 21.9152C111.011 22.5002 110.782 23.2881 110.782 24.279C110.782 25.2655 111.011 26.0513 111.47 26.6362C111.928 27.2168 112.546 27.5071 113.323 27.5071C114.095 27.5071 114.711 27.2168 115.169 26.6362C115.627 26.0513 115.857 25.2655 115.857 24.279C115.857 23.2881 115.627 22.5002 115.169 21.9152ZM122.869 29H120.892V21.1819H118.161V19.5515H125.606V21.1819H122.869V29ZM130.334 25.9945H126.032V24.3248H130.334V25.9945ZM133.916 29H131.938V19.5515H133.916V23.8599H133.975L137.523 19.5515H139.724L136.227 23.7421L139.966 29H137.602L134.8 25.0516L133.916 26.1124V29ZM142.742 19.5515V25.4642C142.742 26.0797 142.915 26.5686 143.259 26.9309C143.609 27.2888 144.097 27.4678 144.726 27.4678C145.35 27.4678 145.835 27.2888 146.18 26.9309C146.529 26.5686 146.704 26.0797 146.704 25.4642V19.5515H148.681V25.6606C148.681 26.7083 148.321 27.5551 147.601 28.2012C146.885 28.8429 145.927 29.1637 144.726 29.1637C143.521 29.1637 142.559 28.8429 141.838 28.2012C141.123 27.5551 140.765 26.7083 140.765 25.6606V19.5515H142.742ZM154.495 29H152.518V21.1819H149.788V19.5515H157.232V21.1819H154.495V29ZM160.303 19.5515V25.4642C160.303 26.0797 160.476 26.5686 160.821 26.9309C161.17 27.2888 161.659 27.4678 162.287 27.4678C162.912 27.4678 163.396 27.2888 163.741 26.9309C164.09 26.5686 164.265 26.0797 164.265 25.4642V19.5515H166.242V25.6606C166.242 26.7083 165.882 27.5551 165.162 28.2012C164.446 28.8429 163.488 29.1637 162.287 29.1637C161.083 29.1637 160.12 28.8429 159.4 28.2012C158.684 27.5551 158.326 26.7083 158.326 25.6606V19.5515H160.303ZM172.004 29H167.82V19.5515H171.932C172.819 19.5515 173.521 19.7632 174.041 20.1866C174.56 20.61 174.82 21.184 174.82 21.9087C174.82 22.4238 174.65 22.8756 174.309 23.2641C173.973 23.6526 173.552 23.8839 173.046 23.9582V24.0105C173.692 24.0586 174.224 24.2965 174.643 24.7243C175.062 25.152 175.272 25.6759 175.272 26.2957C175.272 27.1295 174.979 27.7886 174.394 28.2732C173.809 28.7577 173.013 29 172.004 29ZM169.798 21.0247V23.4802H171.219C171.747 23.4802 172.155 23.371 172.443 23.1528C172.731 22.9301 172.875 22.618 172.875 22.2164C172.875 21.8367 172.749 21.5442 172.496 21.339C172.242 21.1295 171.884 21.0247 171.422 21.0247H169.798ZM169.798 27.5267H171.5C172.072 27.5267 172.506 27.4089 172.803 27.1731C173.104 26.9331 173.255 26.5882 173.255 26.1386C173.255 25.6977 173.1 25.3616 172.79 25.1302C172.485 24.8989 172.039 24.7832 171.454 24.7832H169.798V27.5267ZM175.789 29L178.788 24.2659V24.2135L175.809 19.5515H178.133L180.137 22.9563H180.189L182.213 19.5515H184.419L181.329 24.2528V24.2986L184.38 29H182.127L180.058 25.6933H180.006L177.924 29H175.789ZM185.919 20.7039C186.739 19.8265 187.85 19.3878 189.251 19.3878C190.653 19.3878 191.761 19.8265 192.578 20.7039C193.398 21.5813 193.809 22.773 193.809 24.279C193.809 25.7806 193.398 26.9702 192.578 27.8476C191.757 28.725 190.648 29.1637 189.251 29.1637C187.85 29.1637 186.739 28.725 185.919 27.8476C185.102 26.9702 184.694 25.7806 184.694 24.279C184.694 22.773 185.102 21.5813 185.919 20.7039ZM191.098 21.9152C190.64 21.3303 190.024 21.0378 189.251 21.0378C188.479 21.0378 187.861 21.3303 187.398 21.9152C186.94 22.5002 186.711 23.2881 186.711 24.279C186.711 25.2655 186.94 26.0513 187.398 26.6362C187.857 27.2168 188.474 27.5071 189.251 27.5071C190.024 27.5071 190.64 27.2168 191.098 26.6362C191.556 26.0513 191.785 25.2655 191.785 24.279C191.785 23.2881 191.556 22.5002 191.098 21.9152ZM196.978 29H195.086V19.5515H196.736L201.149 25.7064H201.201V19.5515H203.094V29H201.457L197.037 22.8123H196.978V29ZM210.859 29L210.139 26.7083H206.819L206.099 29H204.069L207.35 19.5515H209.674L212.961 29H210.859ZM208.456 21.3587L207.245 25.2284H209.714L208.502 21.3587H208.456ZM73.4527 45H71.6914V38.6224H71.639L69.0722 44.9083H67.8281L65.2614 38.6224H65.209V45H63.4476V35.5515H65.7394L68.424 42.2499H68.4764L71.161 35.5515H73.4527V45ZM81.2119 45L80.4917 42.7083H77.1719L76.4516 45H74.4218L77.7023 35.5515H80.0268L83.3138 45H81.2119ZM78.8089 37.3587L77.5975 41.2284H80.0661L78.8547 37.3587H78.8089ZM86.2603 37.0967V40.1088H87.9628C88.4604 40.1088 88.8467 39.9756 89.1217 39.7093C89.4011 39.4431 89.5408 39.0742 89.5408 38.6027C89.5408 38.1444 89.3967 37.7799 89.1086 37.5093C88.8205 37.2342 88.432 37.0967 87.9431 37.0967H86.2603ZM86.2603 41.5427V45H84.2829V35.5515H88.1526C89.2309 35.5515 90.069 35.8199 90.667 36.3568C91.2694 36.8894 91.5706 37.6249 91.5706 38.5635C91.5706 39.179 91.4178 39.729 91.1123 40.2135C90.8111 40.6937 90.392 41.0385 89.8551 41.2481L91.8456 45H89.6063L87.8449 41.5427H86.2603ZM94.8511 45H92.8737V35.5515H94.8511V39.8599H94.91L98.459 35.5515H100.659L97.1625 39.7421L100.901 45H98.5375L95.7351 41.0516L94.8511 42.1124V45ZM107.927 45L107.207 42.7083H103.887L103.167 45H101.137L104.418 35.5515H106.742L110.029 45H107.927ZM105.524 37.3587L104.313 41.2284H106.781L105.57 37.3587H105.524ZM110.795 45V43.7101L115.595 37.2342V37.1819H110.906V35.5515H117.958V36.8348L113.179 43.3172V43.363H118.089V45H110.795ZM121.435 45H119.458V35.5515H121.435V45Z" fill="#454343"/>
</svg>
